<svg xmlns="http://www.w3.org/2000/svg" viewBox="0 0 820 470" role="img" aria-labelledby="t d"><title id="t">phase educational reference</title><desc id="d">Illustrative ideal binary phase curves; parameters are invented, not Pluto materials.</desc><rect width="820" height="470" fill="#07101e"/><g font-family="sans-serif"><text x="30" y="30" fill="#e3edff" font-size="17">PHASE / SYNTHETIC EDUCATIONAL REFERENCE</text><path d="M70 65 V395 H750" stroke="#697e98" fill="none"/><polyline points="70.00,65.00 76.94,66.97 83.88,68.95 90.82,70.93 97.76,72.91 104.69,74.91 111.63,76.90 118.57,78.91 125.51,80.92 132.45,82.93 139.39,84.95 146.33,86.98 153.27,89.02 160.20,91.06 167.14,93.11 174.08,95.16 181.02,97.23 187.96,99.30 194.90,101.37 201.84,103.46 208.78,105.55 215.71,107.66 222.65,109.77 229.59,111.89 236.53,114.02 243.47,116.15 250.41,118.30 257.35,120.46 264.29,122.63 271.22,124.80 278.16,126.99 285.10,129.19 292.04,131.40 298.98,133.62 305.92,135.86 312.86,138.10 319.80,140.36 326.73,142.63 333.67,144.92 340.61,147.22 347.55,149.53 354.49,151.86 361.43,154.20 368.37,156.56 375.31,158.93 382.24,161.33 389.18,163.73 396.12,166.16 403.06,168.61 410.00,171.07 416.94,173.56 423.88,176.07 430.82,178.59 437.76,181.14 444.69,183.72 451.63,186.32 458.57,188.94 465.51,191.59 472.45,194.27 479.39,196.97 486.33,199.71 493.27,202.48 500.20,205.28 507.14,208.12 514.08,210.99 521.02,213.90 527.96,216.85 534.90,219.84 541.84,222.88 548.78,225.97 555.71,229.10 562.65,232.29 569.59,235.54 576.53,238.84 583.47,242.21 590.41,245.65 597.35,249.17 604.29,252.76 611.22,256.44 618.16,260.22 625.10,264.09 632.04,268.08 638.98,272.19 645.92,276.43 652.86,280.83 659.80,285.39 666.73,290.15 673.67,295.11 680.61,300.33 687.55,305.83 694.49,311.68 701.43,317.93 708.37,324.69 715.31,332.08 722.24,340.30 729.18,349.67 736.12,360.75 743.06,374.72 750.00,395.00" stroke="#69deed" stroke-width="2" fill="none"/><text x="30" y="432" fill="#a9bed8" font-size="11">fraction_B (0.01 to 0.99) vs liquidus_A_K (99.2 to 269)</text><text x="30" y="455" fill="#8ba1ba" font-size="11">Original mathematical visualization; not mission observations or validated research output.</text></g></svg>