<svg xmlns="http://www.w3.org/2000/svg" viewBox="0 0 920 590" role="img" aria-labelledby="title desc">
<title id="title">E04 conceptual research model</title>
<desc id="desc">AURA VERTICAL: question, observables, model and validation. Proposed design; no measured results.</desc>
<rect width="920" height="590" fill="#f7f9fc"/>
<style>text{font-family:Arial,sans-serif;fill:#142338}.tag{fill:#225fc5;font-size:13px;font-weight:700}.body{font-size:17px}.foot{font-size:13px;fill:#526379}</style>
<text x="32" y="32" class="tag">E04 / AURA VERTICAL</text>
<rect x="30" y="52" width="860" height="105" rx="8" fill="white" stroke="#d6dee8"/>
<text x="50" y="75" class="tag">QUESTION</text>
<text x="50" y="100" class="body">Does a calibrated vertical gas profile contain an altitude-dependent mole-fraction signal</text>
<text x="50" y="121" class="body">beyond pressure, humidity, response lag and flight-path variability?</text>
<path d="M460 159 v13 m-5 -5 l5 5 l5 -5" fill="none" stroke="#225fc5" stroke-width="2"/>
<rect x="30" y="177" width="860" height="105" rx="8" fill="white" stroke="#d6dee8"/>
<text x="50" y="200" class="tag">OBSERVABLES</text>
<text x="50" y="225" class="body">UTC, latitude/longitude, pressure Pa, temperature K, water-vapor mole fraction, selective gas</text>
<text x="50" y="246" class="body">mole fraction, calibration scale and instrument response time</text>
<path d="M460 284 v13 m-5 -5 l5 5 l5 -5" fill="none" stroke="#225fc5" stroke-width="2"/>
<rect x="30" y="302" width="860" height="105" rx="8" fill="white" stroke="#d6dee8"/>
<text x="50" y="325" class="tag">MODEL</text>
<text x="50" y="350" class="body">n_air=p/(k_B*T)</text>
<path d="M460 409 v13 m-5 -5 l5 5 l5 -5" fill="none" stroke="#225fc5" stroke-width="2"/>
<rect x="30" y="427" width="860" height="105" rx="8" fill="white" stroke="#d6dee8"/>
<text x="50" y="450" class="tag">VALIDATION</text>
<text x="50" y="475" class="body">Proposed gate: calibration bias is below one-third of the smallest scientific gradient</text>
<text x="50" y="496" class="body">targeted.</text>
<text x="32" y="570" class="foot">Conceptual design • proposed research • full equations, data access and uncertainty in the dossier</text></svg>