<svg xmlns="http://www.w3.org/2000/svg" viewBox="0 0 920 590" role="img" aria-labelledby="title desc">
<title id="title">I09 conceptual research model</title>
<desc id="desc">OSIRIS REGOLITH LEAPER: question, observables, model and validation. Proposed design; no measured results.</desc>
<rect width="920" height="590" fill="#f7f9fc"/>
<style>text{font-family:Arial,sans-serif;fill:#142338}.tag{fill:#225fc5;font-size:13px;font-weight:700}.body{font-size:17px}.foot{font-size:13px;fill:#526379}</style>
<text x="32" y="32" class="tag">I09 / OSIRIS REGOLITH LEAPER</text>
<rect x="30" y="52" width="860" height="105" rx="8" fill="white" stroke="#d6dee8"/>
<text x="50" y="75" class="tag">QUESTION</text>
<text x="50" y="100" class="body">Which contact and attitude-control assumptions dominate the probability of a useful landing on</text>
<text x="50" y="121" class="body">a rotating small body?</text>
<path d="M460 159 v13 m-5 -5 l5 5 l5 -5" fill="none" stroke="#225fc5" stroke-width="2"/>
<rect x="30" y="177" width="860" height="105" rx="8" fill="white" stroke="#d6dee8"/>
<text x="50" y="200" class="tag">OBSERVABLES</text>
<text x="50" y="225" class="body">Hopping/tumbling concept and low-gravity experimental context</text>
<path d="M460 284 v13 m-5 -5 l5 5 l5 -5" fill="none" stroke="#225fc5" stroke-width="2"/>
<rect x="30" y="302" width="860" height="105" rx="8" fill="white" stroke="#d6dee8"/>
<text x="50" y="325" class="tag">MODEL</text>
<text x="50" y="350" class="body">\ddot{\boldsymbol r}=\boldsymbol g_{\rm shape}(\boldsymbol</text>
<text x="50" y="371" class="body">r)-2\boldsymbol\Omega\times\dot{\boldsymbol</text>
<text x="50" y="392" class="body">r}-\boldsymbol\Omega\times(\boldsymbol\Omega\times\boldsymbol r)+\boldsymbol a_{\rm contact}</text>
<path d="M460 409 v13 m-5 -5 l5 5 l5 -5" fill="none" stroke="#225fc5" stroke-width="2"/>
<rect x="30" y="427" width="860" height="105" rx="8" fill="white" stroke="#d6dee8"/>
<text x="50" y="450" class="tag">VALIDATION</text>
<text x="50" y="475" class="body">Check force-free/angular-momentum limits and conservation in conservative phases; quantify</text>
<text x="50" y="496" class="body">numerical drift.</text>
<text x="32" y="570" class="foot">Conceptual design • proposed research • full equations, data access and uncertainty in the dossier</text></svg>